<svg xmlns="http://www.w3.org/2000/svg" width="10" height="10" fill="none" viewBox="0 0 10 10"><path fill="#fff" d="M0.714286 9.0625C0.714286 9.31114 0.827168 9.5496 1.0281 9.72541C1.22903 9.90123 1.50155 10 1.78571 10H8.21429C8.49845 10 8.77097 9.90123 8.9719 9.72541C9.17283 9.5496 9.28571 9.31114 9.28572 9.0625V2.5H0.714286V9.0625ZM6.78571 4.0625C6.78571 3.97962 6.82334 3.90014 6.89032 3.84153C6.9573 3.78293 7.04814 3.75 7.14286 3.75C7.23758 3.75 7.32842 3.78293 7.3954 3.84153C7.46237 3.90014 7.5 3.97962 7.5 4.0625V8.4375C7.5 8.52038 7.46237 8.59987 7.3954 8.65847C7.32842 8.71708 7.23758 8.75 7.14286 8.75C7.04814 8.75 6.9573 8.71708 6.89032 8.65847C6.82334 8.59987 6.78571 8.52038 6.78571 8.4375V4.0625ZM4.64286 4.0625C4.64286 3.97962 4.68048 3.90014 4.74746 3.84153C4.81444 3.78293 4.90528 3.75 5 3.75C5.09472 3.75 5.18556 3.78293 5.25254 3.84153C5.31952 3.90014 5.35714 3.97962 5.35714 4.0625V8.4375C5.35714 8.52038 5.31952 8.59987 5.25254 8.65847C5.18556 8.71708 5.09472 8.75 5 8.75C4.90528 8.75 4.81444 8.71708 4.74746 8.65847C4.68048 8.59987 4.64286 8.52038 4.64286 8.4375V4.0625ZM2.5 4.0625C2.5 3.97962 2.53763 3.90014 2.6046 3.84153C2.67158 3.78293 2.76242 3.75 2.85714 3.75C2.95186 3.75 3.0427 3.78293 3.10968 3.84153C3.17666 3.90014 3.21429 3.97962 3.21429 4.0625V8.4375C3.21429 8.52038 3.17666 8.59987 3.10968 8.65847C3.0427 8.71708 2.95186 8.75 2.85714 8.75C2.76242 8.75 2.67158 8.71708 2.6046 8.65847C2.53763 8.59987 2.5 8.52038 2.5 8.4375V4.0625ZM9.64286 0.625003H6.96429L6.75446 0.259769C6.71002 0.181686 6.64155 0.116004 6.55677 0.0701125C6.47198 0.024221 6.37425 -5.91399e-05 6.27455 3.42436e-06H3.72321C3.62375 -0.000331156 3.52618 0.0238585 3.4417 0.069801C3.35721 0.115743 3.28923 0.18158 3.24554 0.259769L3.03571 0.625003H0.357143C0.262423 0.625003 0.171582 0.657927 0.104605 0.716532C0.0376274 0.775137 0 0.854623 0 0.937503L0 1.5625C0 1.64538 0.0376274 1.72487 0.104605 1.78347C0.171582 1.84208 0.262423 1.875 0.357143 1.875H9.64286C9.73758 1.875 9.82842 1.84208 9.8954 1.78347C9.96237 1.72487 10 1.64538 10 1.5625V0.937503C10 0.854623 9.96237 0.775137 9.8954 0.716532C9.82842 0.657927 9.73758 0.625003 9.64286 0.625003Z"/></svg>