<svg width="29" height="26" viewBox="0 0 29 26" fill="none" xmlns="http://www.w3.org/2000/svg">
<path d="M26.5894 15.3014L28.9694 4.73886C29.1413 3.97622 28.5666 3.25 27.7912 3.25H8.01568L7.5542 0.974492C7.43921 0.407316 6.94439 0 6.37038 0H1.20833C0.540981 0 0 0.545645 0 1.21875V2.03125C0 2.70436 0.540981 3.25 1.20833 3.25H4.72675L8.26354 20.6901C7.41741 21.1809 6.84722 22.1011 6.84722 23.1562C6.84722 24.7268 8.10953 26 9.66667 26C11.2238 26 12.4861 24.7268 12.4861 23.1562C12.4861 22.3603 12.1615 21.6412 11.6391 21.125H22.1942C21.6718 21.6412 21.3472 22.3603 21.3472 23.1562C21.3472 24.7268 22.6095 26 24.1667 26C25.7238 26 26.9861 24.7268 26.9861 23.1562C26.9861 22.0303 26.3372 21.0574 25.3962 20.5966L25.674 19.3639C25.8458 18.6012 25.2711 17.875 24.4957 17.875H10.9816L10.6521 16.25H25.4111C25.9753 16.25 26.4644 15.8562 26.5894 15.3014Z" fill="#ABABAB"/>
</svg>
