<svg xmlns="http://www.w3.org/2000/svg" width="35" height="27" fill="none" viewBox="0 0 35 27"><path fill="#ABABAB" d="M17.036 7.00451L5.83379 16.1572V26.0356C5.83379 26.2914 5.93622 26.5367 6.11853 26.7175C6.30084 26.8984 6.54811 27 6.80594 27L13.6146 26.9825C13.8716 26.9812 14.1176 26.8791 14.2989 26.6984C14.4802 26.5176 14.5819 26.2731 14.5819 26.0181V20.2492C14.5819 19.9935 14.6843 19.7482 14.8666 19.5673C15.049 19.3865 15.2962 19.2849 15.5541 19.2849H19.4426C19.7005 19.2849 19.9477 19.3865 20.1301 19.5673C20.3124 19.7482 20.4148 19.9935 20.4148 20.2492V26.0139C20.4144 26.1408 20.4392 26.2665 20.4879 26.3839C20.5366 26.5012 20.6081 26.6079 20.6985 26.6978C20.7888 26.7877 20.8961 26.859 21.0142 26.9076C21.1324 26.9563 21.259 26.9813 21.3869 26.9813L28.1932 27C28.451 27 28.6983 26.8984 28.8806 26.7175C29.0629 26.5367 29.1653 26.2914 29.1653 26.0356V16.1506L17.9656 7.00451C17.8339 6.89922 17.6699 6.84181 17.5008 6.84181C17.3317 6.84181 17.1676 6.89922 17.036 7.00451ZM34.7309 13.2254L29.6514 9.07193V0.723295C29.6514 0.531465 29.5746 0.347492 29.4379 0.211848C29.3011 0.0762042 29.1157 0 28.9223 0H25.5198C25.3264 0 25.141 0.0762042 25.0042 0.211848C24.8675 0.347492 24.7907 0.531465 24.7907 0.723295V5.09983L19.3509 0.660007C18.8289 0.233853 18.1738 0.000851888 17.4977 0.000851888C16.8217 0.000851888 16.1666 0.233853 15.6446 0.660007L0.264606 13.2254C0.190776 13.286 0.129693 13.3604 0.0848477 13.4443C0.0400026 13.5283 0.0122738 13.6202 0.00324585 13.7148C-0.00578212 13.8094 0.00406762 13.9048 0.0322323 13.9956C0.060397 14.0865 0.106325 14.1709 0.167391 14.2441L1.71675 16.1126C1.77765 16.1861 1.85256 16.2469 1.93718 16.2916C2.02181 16.3363 2.11449 16.364 2.20993 16.3731C2.30536 16.3823 2.40167 16.3726 2.49335 16.3448C2.58503 16.3169 2.67027 16.2714 2.74419 16.2108L17.036 4.53325C17.1676 4.42797 17.3317 4.37055 17.5008 4.37055C17.6699 4.37055 17.8339 4.42797 17.9656 4.53325L32.258 16.2108C32.3318 16.2714 32.4169 16.317 32.5084 16.3449C32.6 16.3729 32.6962 16.3826 32.7915 16.3737C32.8869 16.3647 32.9795 16.3372 33.0642 16.2927C33.1488 16.2482 33.2238 16.1877 33.2848 16.1144L34.8342 14.2459C34.8952 14.1723 34.9409 14.0874 34.9687 13.9962C34.9966 13.905 35.006 13.8092 34.9964 13.7144C34.9868 13.6195 34.9584 13.5275 34.9128 13.4436C34.8672 13.3597 34.8054 13.2856 34.7309 13.2254Z"/></svg>