<svg width="18" height="13" viewBox="0 0 18 13" fill="none" xmlns="http://www.w3.org/2000/svg">
<path d="M17.659 4.29271C17.7961 4.18776 18 4.28594 18 4.45182V11.375C18 12.2721 17.2441 13 16.3125 13H1.6875C0.755859 13 0 12.2721 0 11.375V4.45521C0 4.28594 0.200391 4.19115 0.341016 4.29609C1.12852 4.88516 2.17266 5.63333 5.75859 8.14193C6.50039 8.66328 7.75195 9.76016 9 9.75339C10.2551 9.76354 11.5312 8.64297 12.2449 8.14193C15.8309 5.63333 16.8715 4.88177 17.659 4.29271ZM9 8.66667C9.81563 8.68021 10.9898 7.67813 11.5805 7.2651C16.2457 4.00495 16.6008 3.72057 17.6766 2.90807C17.8805 2.75573 18 2.51875 18 2.26823V1.625C18 0.727865 17.2441 0 16.3125 0H1.6875C0.755859 0 0 0.727865 0 1.625V2.26823C0 2.51875 0.119531 2.75234 0.323437 2.90807C1.39922 3.71719 1.7543 4.00495 6.41953 7.2651C7.01016 7.67813 8.18437 8.68021 9 8.66667Z" fill="black" fill-opacity="0.76"/>
</svg>
