<svg width="18" height="17" viewBox="0 0 18 17" fill="none" xmlns="http://www.w3.org/2000/svg">
<path d="M17.4867 12.0128L13.5491 10.419C13.3809 10.3513 13.1939 10.3371 13.0164 10.3784C12.8389 10.4197 12.6804 10.5144 12.5647 10.6481L10.8209 12.6603C8.08423 11.4416 5.88181 9.36157 4.59149 6.77691L6.72199 5.13C6.86391 5.02099 6.96436 4.87127 7.00813 4.70352C7.0519 4.53577 7.03661 4.35911 6.96457 4.2003L5.27705 0.481485C5.19798 0.310289 5.05815 0.170514 4.88165 0.0862606C4.70516 0.00200721 4.50307 -0.0214431 4.31023 0.0199532L0.653918 0.816842C0.467997 0.85739 0.302119 0.956258 0.183355 1.09731C0.064592 1.23836 -4.28284e-05 1.41326 2.12917e-08 1.59348C2.12917e-08 10.1102 7.30911 17 16.3128 17C16.5037 17.0001 16.6889 16.9391 16.8384 16.8269C16.9878 16.7148 17.0925 16.5581 17.1355 16.3824L17.9792 12.9292C18.0228 12.7462 17.9974 12.5546 17.9075 12.3873C17.8176 12.2201 17.6688 12.0876 17.4867 12.0128Z" fill="black" fill-opacity="0.76"/>
</svg>
